<svg xmlns="http://www.w3.org/2000/svg" viewBox="0 0 934.61 534.72"><defs><style>.a{fill:#fda75f;}.b{fill:#00badf;}.c{fill:#b499df;}.d{fill:#4ee9e4;}.e{fill:#f9fcfc;}.f{fill:#fbfcfb;}.g{fill:#f8fbfc;}.h{fill:#050506;}.i{fill:#f0f0f0;}.j{fill:#d3d3d3;}.k{fill:#072fb6;}.l{fill:#f9f9f9;}.m{fill:#092da9;}.n{fill:#dcdcdc;}.o{fill:#0a206e;}.p{fill:#e5e5e5;}.q{fill:#0a278c;}.r{fill:#e7e7e7;}.s{fill:#0f32a3;}</style></defs><title>logo</title><path class="a" d="M274.88,751c-14.57-2.44-29.2-4.57-43.69-7.42-9.95-1.95-19.76-4.67-29.52-7.42a291.55,291.55,0,0,1-89.25-42.71c-28.16-19.83-48.07-46.79-62.55-77.79-11.21-24-18.47-49.13-15.61-75.91,2.58-24.2,10.48-47.05,20.88-69C69.19,441,89.87,417,115.79,397c22.91-17.69,47.14-33,73.62-44.76,22.63-10,46.37-12.91,70.86-10.56,2.73.26,5.43.74,8.15,1.12l97.89,106.86c-.93.34-1.84.75-2.79,1-69.1,19.71-134,49.13-195.87,85.34a63,63,0,0,0-6.21,4.78c2.8,2.41,4.7,4.28,6.83,5.84,44.34,32.29,90,62.49,139.48,86.41,19.57,9.47,40,17.24,60.13,25.44,5.93,2.42,12.33,3.7,18.52,5.5a28.3,28.3,0,0,1-2.47,2.43q-33.53,25.89-67.06,51.76C302.82,729,288.87,740,274.88,751Z" transform="translate(-33.63 -220.09)"/><path class="b" d="M278.59,333.68c22.34-33,50.3-59.55,86.35-77.4,30.19-14.95,61.6-26.22,94.62-32.59a210.49,210.49,0,0,1,64.62-2c17.85,2.08,35.63,3.93,53.15,8.33,53.51,13.47,97.56,41.52,130.34,85.86,22.77,30.78,37.52,65.43,42.65,103.75q-11.66,7.23-23.3,14.47L658.1,477.12c-10.45-3.8-21.09-7.16-31.32-11.49-33.14-14.05-67-25.59-102.23-33.4-33.73-7.47-66.91-7.36-100.17,1.51q-21,5.58-41.86,11.26c-6.1-6.82-12.06-13.77-18.33-20.43-18.95-20.13-38.06-40.11-57-60.21C297.56,354.2,288.11,343.91,278.59,333.68Z" transform="translate(-33.63 -220.09)"/><path class="c" d="M764,427.05c6.26-.67,12.5-1.68,18.77-1.93,25.81-1.06,51.32,1.23,76.05,9a144,144,0,0,1,24.65,10.65c14.95,8,30.37,15.86,40.85,29.75A425.44,425.44,0,0,1,948,510.17c11.11,18.31,18.27,38.37,19.76,59.63,3.13,44.52-8.37,84.77-38.45,118.77-16.69,18.88-37.43,32.46-59.15,44.65-15.27,8.58-31,16.24-48.17,20.36A28.26,28.26,0,0,1,819,754c-4.68-3.65-9.21-7.49-14-10.92q-63.56-45.12-127.19-90.16c-7.13-5.07-13.94-10.59-20.9-15.9,4.85-1.64,9.71-3.22,14.53-4.93,27.51-9.77,55.28-18.87,82.44-29.56C787.14,589.4,820,575.14,852.82,561c13.11-5.62,25.84-12.16,39.53-18.65-2.25-.58-3.63-1-5-1.28-11.15-1.93-22.55-2.94-33.42-5.88q-66.52-18-132.75-37.07c-15.33-4.39-30.34-9.89-45.49-14.88,18.51-11.64,37.05-23.22,55.51-34.94C742.18,441.35,753.07,434.15,764,427.05Z" transform="translate(-33.63 -220.09)"/><path class="d" d="M797.41,754.53c-1.66.09-3.31.25-5,.25q-199.35,0-398.7,0c-27.62,0-55.24-.5-82.85-.86-4.31-.06-8.61-.61-12.92-.94,22.46-17.39,45-34.69,67.34-52.2C379,690,392.5,679,406.08,668c1.48.18,3,.27,4.43.54,25.49,4.65,51.21,7,77,5,34.08-2.66,67.27-10.73,100.39-18.82,17.74-4.34,35.38-9.08,53.06-13.63a13.83,13.83,0,0,0,1.71,1.79q40,29,80.1,58Q760.06,727.77,797.41,754.53Z" transform="translate(-33.63 -220.09)"/><path class="e" d="M722.8,700.89q-40.11-28.93-80.1-58a13.83,13.83,0,0,1-1.71-1.79L656.91,637c7,5.31,13.77,10.83,20.9,15.9Q741.35,698,805,743c4.83,3.43,9.36,7.27,14,10.92l-21.63.57" transform="translate(-33.63 -220.09)"/><path class="f" d="M298,753l-23.09-2c14-10.94,27.94-21.94,42-32.81q33.48-25.93,67.06-51.76a26.86,26.86,0,0,0,2.46-2.43L406.08,668C392.5,679,379,690,365.31,700.75" transform="translate(-33.63 -220.09)"/><path class="f" d="M364.19,424.57c6.27,6.66,12.23,13.61,18.33,20.43l-16.21,4.61L268.42,342.75c6.58.56,6.75-6.08,10.17-9.07,9.52,10.23,19,20.52,28.56,30.68" transform="translate(-33.63 -220.09)"/><path class="g" d="M750.32,419.59c2.43,8.66,2.43,8.66,11.7,7.48a16.52,16.52,0,0,1,2,0c-10.94,7.1-21.83,14.3-32.85,21.29-18.46,11.72-37,23.3-55.51,34.94l-17.55-6.16" transform="translate(-33.63 -220.09)"/><path class="h" d="M658.1,477.12l17.55,6.16c15.15,5,30.16,10.49,45.49,14.88q66.26,19,132.75,37.07c10.87,2.94,22.27,3.95,33.42,5.88,1.41.25,2.79.7,5,1.28-13.69,6.49-26.42,13-39.53,18.65-32.86,14.1-65.68,28.36-98.94,41.45-27.16,10.69-54.93,19.79-82.44,29.56-4.82,1.71-9.68,3.29-14.53,4.93L641,641.11c-17.68,4.55-35.32,9.29-53.06,13.63-33.12,8.09-66.31,16.16-100.39,18.82-25.82,2-51.54-.34-77-5-1.46-.27-2.95-.36-4.43-.54L386.39,664c-6.18-1.8-12.58-3.08-18.51-5.5-20.16-8.2-40.56-16-60.13-25.44-49.46-23.92-95.14-54.12-139.48-86.41-2.13-1.56-4-3.43-6.83-5.84a63,63,0,0,1,6.21-4.78c61.9-36.21,126.77-65.63,195.87-85.34,1-.28,1.86-.69,2.79-1L382.52,445q20.93-5.64,41.86-11.26c33.26-8.87,66.44-9,100.17-1.51,35.25,7.81,69.09,19.35,102.23,33.4C637,470,647.65,473.32,658.1,477.12ZM199.05,562l.91.69a5.17,5.17,0,0,0,.69.71c38.69,26.09,78.07,51.07,120.66,70.4,16.15,7.32,33,13,49.58,19.45,13.59,3.15,27.11,6.65,40.78,9.37,22.93,4.57,46.1,7.83,69.5,5.35,20.83-2.22,41.76-4.5,62.24-8.7,27.49-5.64,54.77-12.48,81.8-20,29.4-8.23,58.47-17.66,87.55-27,14.36-4.61,28.42-10.15,42.6-15.32,39.73-14.51,78.43-31.4,116.53-49.72,1.52-.74,3-1.56,5.22-2.71-8.61-1.48-16.24-2.43-23.69-4.12-75.17-17-148.41-40.29-220.66-66.89-24.5-9-49-18.11-73.48-27.1-2.54-.93-5.23-1.45-9-2.48l9.67,12.25c15.47,29.06,24,59.86,21,92.91a129.09,129.09,0,0,1-18,55.57c-10.46,17.31-24.92,30.63-42,41.24l-4,2.07c-.92.34-1.88.6-2.76,1-23.77,11.57-48.73,15-74.62,10-9.37-1.8-18.43-5.2-27.64-7.87l-14.9-6.27-3.81-1.94a19.08,19.08,0,0,1-3-1.42,128.56,128.56,0,0,1-40.83-46.63c-18.29-35.22-21.9-71.33-5.67-108.42,1.93-4.4,3.65-8.89,5.46-13.34l1.93-2.76,9.51-12.83a47.62,47.62,0,0,0-4.95,1c-26.46,9.33-53.23,17.9-79.26,28.31-20.61,8.24-40.32,18.75-60.43,28.26l-49.17,25.35L199,562Zm146-63-.82,2.05-.32,1.89a17.6,17.6,0,0,0-1.51,3.62c-2.55,14.35-4.57,28.6-2.62,43.38,3.78,28.66,16.56,52.71,35.65,73.76,9.24,10.19,21.37,16.17,33.66,21.86,24.5,11.33,49.78,14.7,76.26,8.41,29.38-7,54.17-21.41,70-47.42,14.18-23.36,22.59-48.84,21-77.12a164.73,164.73,0,0,0-17.63-64.91C553.75,454.71,546,447.23,537,441L528,439l-20-4-36.62-3.91-.19,1.58c2.53.64,5.06,1.34,7.61,1.93,22.25,5.16,40.55,15.92,53.28,35.62,15,23.24,21,47.76,13.91,75.07-9.52,36.62-29.46,63.42-67.82,73.1-32.71,8.26-60.82-.54-83.54-24.82-20.44-21.85-28.89-48.54-27.34-78.38,13.41,10.95,27.89,11.87,43.24,4.63-.7,3.91-1.22,8.37,4.05,8.83,9.53.84,19.15,1,28.73,1,1.41,0,3.7-2.22,4-3.7s-1.22-3.83-2.62-4.73a15.36,15.36,0,0,0-7-2.23c-7.22-.52-14.46-.65-21.7-.93a9,9,0,0,1,1.15-1.43c12.9-10.49,17.06-24.37,13.65-40a40,40,0,0,0-22.22-28.35L422,440.5l-.27-.81-21.69,6.11c-6.23,1.62-12.39,3.64-18.71,4.77-15.46,2.76-20.94,15.09-26.83,27.16-.27.39-.53.78-.8,1.16Zm79.82-59.58,0,.19.36-.07Zm-64.1,18.12c-.12-.11-.23-.31-.34-.31s-.24.18-.36.29c.12.11.23.31.34.31S360.61,457.64,360.73,457.54Z" transform="translate(-33.63 -220.09)"/><path class="i" d="M520.94,645.86c17.08-10.61,31.54-23.93,42-41.24a129.09,129.09,0,0,0,18-55.57c3-33-5.55-63.85-21-92.91L561,455c8.59,4,17.1,8.15,25.8,11.86,7.86,3.35,16,6.13,23.91,9.29,5.5,2.18,10.94,4.52,16.35,6.9,9.39,4.13,18.62,8.66,28.15,12.43,6.72,2.65,14.09,3.7,20.7,6.53a285,285,0,0,0,48.28,16.28c6.21,1.43,12.3,3.39,18.42,5.16,12.16,3.52,24.31,7.09,36.46,10.61,11,3.18,22,6.13,32.89,9.56,5.09,1.6,8.66,6.39,7.81,9.65-1.3,5-3.83,9.2-9.1,11-11.71,3.94-23.52,7.62-35.13,11.85-11.79,4.3-23.32,9.31-35.1,13.67-9.09,3.37-18.32,6.41-27.59,9.23-12.35,3.75-24.9,6.86-37.18,10.79-9.06,2.91-17.69,7.17-26.77,10C634.56,624.22,620,628,605.56,632c-9.21,2.56-18.55,4.7-27.65,7.62-17.32,5.55-34.85,9.42-53.17,8.26C523.43,647.83,522.2,646.57,520.94,645.86Z" transform="translate(-33.63 -220.09)"/><path class="i" d="M349.23,473.07c-1.81,4.45-3.53,8.94-5.46,13.34-16.23,37.09-12.62,73.2,5.67,108.42a128.56,128.56,0,0,0,40.83,46.63,19.08,19.08,0,0,0,3,1.42c-10.07,1.79-19.76-1.12-29.14-3.61-20.84-5.54-40.25-14.71-58.58-26.14-3.72-2.32-8-3.75-11.88-5.81-7.88-4.15-16-7.91-23.43-12.8-11.11-7.35-21.68-15.54-32.49-23.35a26.14,26.14,0,0,0-4.58-2.93c-5.41-2.37-11.13-4.14-16.3-6.94-8.78-4.76-10.4-15.9-4.79-23.64,9.7-13.38,25-19.93,38.46-28.4,10.68-6.71,22.75-11.15,34-17.1,16.2-8.61,33.09-15.25,51.1-18.74C340,472.57,344.67,473.15,349.23,473.07Z" transform="translate(-33.63 -220.09)"/><path class="j" d="M561,455l-1.06,1.17-9.67-12.25c3.8,1,6.49,1.55,9,2.48,24.5,9,49,18.08,73.48,27.1,72.25,26.6,145.49,49.91,220.66,66.89,7.45,1.69,15.08,2.64,23.69,4.12-2.22,1.15-3.7,2-5.22,2.71-38.1,18.32-76.8,35.21-116.53,49.72-14.18,5.17-28.24,10.71-42.6,15.32-29.08,9.34-58.15,18.77-87.55,27-27,7.56-54.31,14.4-81.8,20-20.48,4.2-41.41,6.48-62.24,8.7-23.4,2.48-46.57-.78-69.5-5.35-13.67-2.72-27.19-6.22-40.78-9.37,1.48-.21,3-.75,4.43-.56,10.28,1.35,20.54,2.85,30.81,4.31,4.62.66,6.57-1.3,5.84-5.91,9.21,2.67,18.27,6.07,27.64,7.87,25.89,5,50.85,1.56,74.62-10,.88-.42,1.84-.68,2.76-1,0,4.41,4.39,4.56,6.34,4.48,10.72-.46,21.56-.92,32.07-2.91,12.61-2.38,25-6.13,37.36-9.61,11.45-3.22,22.74-7,34.18-10.3,6.49-1.87,13.26-2.83,19.65-5,12.66-4.22,25-9.3,37.72-13.39,11-3.55,22.46-5.74,33.42-9.41,19.3-6.45,38.43-13.43,57.52-20.49,9-3.32,17.67-7.07,27.3-8.72a36.54,36.54,0,0,0,18.58-8.78c8.33-7.44,6-20.53-4.82-24.6-11.24-4.22-23.3-6.3-35-9.26-7.51-1.91-15.09-3.53-22.54-5.63-12.88-3.63-25.69-7.51-38.51-11.33-7.75-2.3-15.56-4.43-23.19-7.07-10.59-3.67-21.07-7.69-31.55-11.66-9.65-3.65-19.3-7.3-28.84-11.22-9-3.68-17.73-7.82-26.67-11.55-7.76-3.24-15.62-6.25-23.47-9.26-7.54-2.89-15.1-5.7-22.71-8.37C563.09,453.63,561.93,454.58,561,455Z" transform="translate(-33.63 -220.09)"/><path class="k" d="M367.29,515.21c-1.55,29.84,6.9,56.53,27.34,78.38,22.72,24.28,50.83,33.08,83.54,24.82,38.36-9.68,58.3-36.48,67.82-73.1,7.11-27.31,1.09-51.83-13.91-75.07-12.73-19.7-31-30.46-53.28-35.62-2.55-.59-5.08-1.29-7.61-1.93l.19-1.58L508,435c2.26,1.41,4.48,2.9,6.8,4.2,12.82,7.21,21.83,18,29.32,30.4,8.32,13.72,13.62,28.54,14.75,44.49A126.53,126.53,0,0,1,551,567.87c-5.34,14.26-12.53,27.45-24,37.3-16.41,14.1-33.85,26.29-56.88,28.21-24.16,2-46.68-1.52-67.08-14.85-16.91-11-28.05-27.48-36.83-45-5.78-11.52-9-24.54-11.89-37.24a59.85,59.85,0,0,1,.78-30.51c.53-1.77,2-3.24,3-4.85Z" transform="translate(-33.63 -220.09)"/><path class="l" d="M367.29,515.21l-9.15-14.27L355,490l-.36-11-.12-1.23c5.89-12.07,11.37-24.4,26.83-27.16,6.32-1.13,12.48-3.15,18.71-4.77l8.47,2.45a40,40,0,0,1,22.22,28.35c3.41,15.63-.75,29.51-13.65,40A9,9,0,0,0,416,518l.07-.11-1.83.16-3.68,1.76C395.18,527.08,380.7,526.16,367.29,515.21Z" transform="translate(-33.63 -220.09)"/><path class="m" d="M355,490l3.12,11c-1,1.61-2.5,3.08-3,4.85a59.85,59.85,0,0,0-.78,30.51c2.87,12.7,6.11,25.72,11.89,37.24,8.78,17.51,19.92,33.94,36.83,45,20.4,13.33,42.92,16.86,67.08,14.85,23-1.92,40.47-14.11,56.88-28.21,11.47-9.85,18.66-23,24-37.3a126.53,126.53,0,0,0,7.86-53.76c-1.13-15.95-6.43-30.77-14.75-44.49-7.49-12.36-16.5-23.19-29.32-30.4-2.32-1.3-4.54-2.79-6.8-4.2l20,4c.26.59.35,1.37.79,1.75,19,16.24,30.3,37,35.71,61.16,3.06,13.71,5.49,27.51,3.4,41.55-1,6.46-3.11,12.74-4.85,19.07-5.08,18.41-13.42,35.18-25.93,49.7-4.42,5.14-8.61,11.08-14.22,14.49-12.82,7.78-26.5,14.23-41.47,16.92-8.28,1.49-16.7,3.06-25,3-7.31-.06-14.68-2-21.87-3.79-7.35-1.81-14.81-3.72-21.68-6.8-11-4.91-20.21-12.71-28.34-21.34-7-7.43-12.71-16.1-18.77-24.38A79.33,79.33,0,0,1,358.9,579c-4.52-9.06-6.32-18.91-8.51-28.74-4.05-18.16-3.83-36,1.36-53.77C352.42,494.19,353.91,492.14,355,490Z" transform="translate(-33.63 -220.09)"/><path class="n" d="M412,651.09c.73,4.61-1.22,6.57-5.84,5.91-10.27-1.46-20.53-3-30.81-4.31-1.43-.19-2.95.35-4.43.56-16.55-6.44-33.43-12.13-49.58-19.45-42.59-19.33-82-44.31-120.66-70.4a5.17,5.17,0,0,1-.69-.71l-.91-.69-.05,0c-.24-1.12-.18-2.43-.76-3.32-9-13.85.67-34.39,14.2-40,1.45-.6,2.41-2.37,3.59-3.6,20.11-9.51,39.82-20,60.43-28.26,26-10.41,52.8-19,79.26-28.31a47.62,47.62,0,0,1,4.95-1l-9.51,12.83c-4.32-.29-8.78-1.4-12.94-.69-6.61,1.12-13.08,3.27-19.51,5.31-8,2.54-16.27,4.68-23.78,8.31-13.83,6.68-27.31,14.13-40.73,21.63-12.54,7-25.14,14-37.07,22a29,29,0,0,0-10.7,13.35c-3.59,10,2.34,21.63,12.13,26.52,3.67,1.83,8,2.58,11.37,4.76,12.21,7.82,24.1,16.13,36.22,24.1,7,4.63,14,9.45,21.49,13.3,10.79,5.58,22.38,9.68,32.91,15.66,12.13,6.9,25,11.58,38.18,15.48a223.67,223.67,0,0,0,26.63,6.61c3.61.6,8.47,2.73,11.71-1.83Z" transform="translate(-33.63 -220.09)"/><path class="o" d="M537,441c8.93,6.28,16.73,13.76,21.62,23.57a164.73,164.73,0,0,1,17.63,64.91c1.6,28.28-6.81,53.76-21,77.12-15.8,26-40.59,40.44-70,47.42-26.48,6.29-51.76,2.92-76.26-8.41-12.29-5.69-24.42-11.67-33.66-21.86-19.09-21.05-31.87-45.1-35.65-73.76-1.95-14.78.07-29,2.62-43.38a17.6,17.6,0,0,1,1.51-3.62c.26,3.46.62,6.92.76,10.38.5,12.38.19,24.84,1.59,37.12,1.32,11.58,4.1,23.06,10.78,33.06,5.4,8.07,10.59,16.29,16.4,24.06C383.23,620.7,395.22,631.85,410,639c9.63,4.66,20.38,7.25,30.86,9.8,6.72,1.64,13.86,1.91,20.83,2.11,5.77.16,11.75.09,17.3-1.25,7.61-1.83,15-4.73,22.31-7.56,13.47-5.22,25.89-11.56,35.75-23.1a154.48,154.48,0,0,0,24.32-38.86c7.85-18,12.78-36.53,10.79-56.56-1.64-16.51-6.87-31.91-12.62-47.23-.79-2.11-2.29-4-3.44-5.94-3.25-5.59-6.29-11.31-9.77-16.74C543.47,449.23,540.13,445.16,537,441Z" transform="translate(-33.63 -220.09)"/><path class="p" d="M561,455c.95-.39,2.11-1.34,2.84-1.08,7.61,2.67,15.17,5.48,22.71,8.37,7.85,3,15.71,6,23.47,9.26,8.94,3.73,17.71,7.87,26.67,11.55,9.54,3.92,19.19,7.57,28.84,11.22,10.48,4,21,8,31.55,11.66,7.63,2.64,15.44,4.77,23.19,7.07,12.82,3.82,25.63,7.7,38.51,11.33,7.45,2.1,15,3.72,22.54,5.63,11.71,3,23.77,5,35,9.26,10.87,4.07,13.15,17.16,4.82,24.6a36.54,36.54,0,0,1-18.58,8.78c-9.63,1.65-18.32,5.4-27.3,8.72-19.09,7.06-38.22,14-57.52,20.49-11,3.67-22.41,5.86-33.42,9.41-12.69,4.09-25.06,9.17-37.72,13.39-6.39,2.13-13.16,3.09-19.65,5-11.44,3.3-22.73,7.08-34.18,10.3-12.38,3.48-24.75,7.23-37.36,9.61-10.51,2-21.35,2.45-32.07,2.91-2,.08-6.32-.07-6.34-4.48l4-2.07c1.26.71,2.49,2,3.8,2.06,18.32,1.16,35.85-2.71,53.17-8.26,9.1-2.92,18.44-5.06,27.65-7.62,14.46-4,29-7.82,43.32-12.28,9.08-2.83,17.71-7.09,26.77-10,12.28-3.93,24.83-7,37.18-10.79,9.27-2.82,18.5-5.86,27.59-9.23,11.78-4.36,23.31-9.37,35.1-13.67,11.61-4.23,23.42-7.91,35.13-11.85,5.27-1.78,7.8-6,9.1-11,.85-3.26-2.72-8-7.81-9.65-10.89-3.43-21.92-6.38-32.89-9.56-12.15-3.52-24.3-7.09-36.46-10.61-6.12-1.77-12.21-3.73-18.42-5.16A285,285,0,0,1,675.89,502c-6.61-2.83-14-3.88-20.7-6.53-9.53-3.77-18.76-8.3-28.15-12.43-5.41-2.38-10.85-4.72-16.35-6.9-7.94-3.16-16.05-5.94-23.91-9.29C578.08,463.12,569.57,458.94,561,455Z" transform="translate(-33.63 -220.09)"/><path class="q" d="M537,441c3.11,4.21,6.45,8.28,9.27,12.69,3.48,5.43,6.52,11.15,9.77,16.74,1.15,2,2.65,3.83,3.44,5.94,5.75,15.32,11,30.72,12.62,47.23,2,20-2.94,38.59-10.79,56.56A154.48,154.48,0,0,1,537,619c-9.86,11.54-22.28,17.88-35.75,23.1-7.32,2.83-14.7,5.73-22.31,7.56-5.55,1.34-11.53,1.41-17.3,1.25-7-.2-14.11-.47-20.83-2.11-10.48-2.55-21.23-5.14-30.86-9.8-14.74-7.12-26.73-18.27-36.56-31.41-5.81-7.77-11-16-16.4-24.06-6.68-10-9.46-21.48-10.78-33.06-1.4-12.28-1.09-24.74-1.59-37.12-.14-3.46-.5-6.92-.76-10.38.11-.63.22-1.26.32-1.89.27-.68.54-1.37.82-2.05l8.73-20.11a5.62,5.62,0,0,0,.92.07l.36,11c-1.11,2.16-2.6,4.21-3.27,6.5-5.19,17.78-5.41,35.61-1.36,53.77,2.19,9.83,4,19.68,8.51,28.74a79.33,79.33,0,0,0,6.83,11.32c6.06,8.28,11.77,17,18.77,24.38,8.13,8.63,17.38,16.43,28.34,21.34,6.87,3.08,14.33,5,21.68,6.8,7.19,1.77,14.56,3.73,21.87,3.79,8.34.08,16.76-1.49,25-3,15-2.69,28.65-9.14,41.47-16.92,5.61-3.41,9.8-9.35,14.22-14.49,12.51-14.52,20.85-31.29,25.93-49.7,1.74-6.33,3.89-12.61,4.85-19.07,2.09-14-.34-27.84-3.4-41.55-5.41-24.2-16.7-44.92-35.71-61.16-.44-.38-.53-1.16-.79-1.75Z" transform="translate(-33.63 -220.09)"/><path class="r" d="M397.07,644.82c-3.24,4.56-8.1,2.43-11.71,1.83A223.67,223.67,0,0,1,358.73,640c-13.21-3.9-26.05-8.58-38.18-15.48-10.53-6-22.12-10.08-32.91-15.66-7.46-3.85-14.45-8.67-21.49-13.3-12.12-8-24-16.28-36.22-24.1-3.4-2.18-7.7-2.93-11.37-4.76-9.79-4.89-15.72-16.47-12.13-26.52a29,29,0,0,1,10.7-13.35c11.93-8,24.53-15,37.07-22,13.42-7.5,26.9-14.95,40.73-21.63,7.51-3.63,15.77-5.77,23.78-8.31,6.43-2,12.9-4.19,19.51-5.31,4.16-.71,8.62.4,12.94.69l-1.93,2.76c-4.56.08-9.24-.5-13.65.35-18,3.49-34.9,10.13-51.1,18.74-11.2,5.95-23.27,10.39-34,17.1-13.48,8.47-28.76,15-38.46,28.4-5.61,7.74-4,18.88,4.79,23.64,5.17,2.8,10.89,4.57,16.3,6.94a26.14,26.14,0,0,1,4.58,2.93c10.81,7.81,21.38,16,32.49,23.35,7.4,4.89,15.55,8.65,23.43,12.8,3.9,2.06,8.16,3.49,11.88,5.81,18.33,11.43,37.74,20.6,58.58,26.14,9.38,2.49,19.07,5.4,29.14,3.61Z" transform="translate(-33.63 -220.09)"/><path class="j" d="M216,515.09c-1.18,1.23-2.14,3-3.59,3.6-13.53,5.57-23.18,26.11-14.2,40,.58.89.52,2.2.76,3.32l-32.14-21.53Z" transform="translate(-33.63 -220.09)"/><path class="i" d="M410.53,519.84l3.68-1.76,1.41.78.42-.94L416,518c7.24.28,14.48.41,21.7.93a15.36,15.36,0,0,1,7,2.23c1.4.9,2.87,3.3,2.62,4.73s-2.55,3.7-4,3.7c-9.58,0-19.2-.11-28.73-1C409.31,528.21,409.83,523.75,410.53,519.84Z" transform="translate(-33.63 -220.09)"/><path class="s" d="M408.55,448.25l-8.47-2.45,21.69-6.11.27.81Z" transform="translate(-33.63 -220.09)"/><path class="o" d="M345,499c-.28.68-.55,1.37-.82,2.05Z" transform="translate(-33.63 -220.09)"/><polygon class="s" points="391.2 219.33 391.54 219.45 391.18 219.53 391.2 219.33"/><path class="n" d="M360.73,457.54c-.12.1-.24.3-.36.29s-.22-.2-.34-.31c.12-.11.24-.3.36-.29S360.61,457.43,360.73,457.54Z" transform="translate(-33.63 -220.09)"/><path class="m" d="M354.66,479a5.62,5.62,0,0,1-.92-.07c.27-.38.53-.77.8-1.16Z" transform="translate(-33.63 -220.09)"/><path class="j" d="M199.05,562l.91.69Z" transform="translate(-33.63 -220.09)"/><path class="h" d="M416,517.92l-.42.94-1.41-.78Z" transform="translate(-33.63 -220.09)"/></svg>